<svg xmlns="http://www.w3.org/2000/svg" viewBox="18 18 72 72" role="img" aria-label="Scorly">
  <rect x="18" y="18" width="72" height="72" rx="16" fill="#372821"/>
  <path fill="#EFEBDF" fill-rule="evenodd" d="M32.98,42.05L74.95,42.05L75.02,42.12L75.38,42.12L75.45,42.19L76.01,42.26L76.08,42.33L76.50,42.40L76.92,42.61L77.06,42.61L78.19,43.17L79.24,43.95L80.30,45.00L80.44,45.28L80.93,45.91L81.28,46.55L81.28,46.69L81.63,47.39L81.63,47.53L81.77,47.81L81.77,48.02L81.84,48.09L81.84,48.30L81.91,48.38L81.98,49.15L82.05,49.22L82.05,50.06L82.12,50.13L82.12,50.27L82.05,50.34L82.05,51.26L81.98,51.33L81.98,51.75L81.91,51.82L81.91,52.24L81.84,52.31L81.84,52.73L81.77,52.80L81.77,53.37L81.70,53.44L81.70,53.93L81.63,54.00L81.56,54.98L81.49,55.05L81.49,55.48L81.42,55.55L81.42,56.04L81.35,56.11L81.28,57.16L81.21,57.23L81.21,57.66L81.14,57.73L81.14,58.08L81.07,58.15L81.07,58.71L81.00,58.78L81.00,59.27L80.93,59.34L80.86,60.40L80.79,60.47L80.79,60.82L80.72,60.89L80.72,61.38L80.65,61.45L80.58,62.51L80.51,62.58L80.44,63.56L80.37,63.63L80.37,64.05L80.30,64.12L80.30,64.55L80.23,64.62L80.23,65.11L80.16,65.18L80.16,65.60L80.09,65.67L80.09,66.09L80.02,66.16L80.02,66.73L79.95,66.80L79.95,67.22L79.88,67.29L79.88,67.78L79.80,67.85L79.80,68.27L79.73,68.34L79.66,69.40L79.59,69.47L79.59,69.82L79.52,69.89L79.52,70.45L79.45,70.52L79.45,70.95L79.38,71.02L79.38,71.51L79.31,71.58L79.31,71.93L79.24,72.00L79.24,72.49L79.17,72.56L79.17,72.98L79.10,73.05L79.03,74.11L78.96,74.18L78.96,74.60L78.89,74.67L78.89,75.02L78.82,75.09L78.75,76.15L78.68,76.22L78.68,76.50L78.61,76.57L78.54,77.06L78.47,77.13L78.33,77.70L78.19,77.91L78.19,78.05L77.77,78.89L76.92,80.09L76.15,80.86L76.08,80.86L76.01,81.00L75.16,81.63L74.81,81.77L74.67,81.91L73.83,82.34L73.69,82.34L72.98,82.62L72.77,82.62L72.42,82.76L72.07,82.76L72.00,82.83L71.44,82.83L71.37,82.90L36.63,82.90L36.56,82.83L35.93,82.83L35.86,82.76L35.23,82.69L35.16,82.62L34.95,82.62L34.88,82.55L34.31,82.41L32.91,81.70L32.20,81.21L31.15,80.23L31.15,80.16L30.59,79.52L30.23,78.89L30.09,78.75L29.60,77.70L29.60,77.55L29.39,77.06L29.32,76.57L29.25,76.50L29.25,76.22L29.18,76.15L29.18,75.66L29.11,75.59L29.11,75.16L29.04,75.09L28.97,74.04L28.90,73.97L28.83,72.98L28.76,72.91L28.76,72.49L28.69,72.42L28.69,72.00L28.62,71.93L28.62,71.44L28.55,71.37L28.55,70.95L28.48,70.88L28.48,70.45L28.41,70.38L28.41,69.82L28.34,69.75L28.34,69.33L28.27,69.26L28.20,68.20L28.12,68.13L28.12,67.71L28.05,67.64L28.05,67.15L27.98,67.08L27.98,66.66L27.91,66.59L27.91,66.09L27.84,66.02L27.77,65.04L27.70,64.97L27.70,64.62L27.63,64.55L27.63,64.05L27.56,63.98L27.49,63.00L27.42,62.93L27.42,62.51L27.35,62.44L27.35,62.02L27.28,61.95L27.28,61.38L27.21,61.31L27.21,60.89L27.14,60.82L27.14,60.40L27.07,60.33L27.07,59.91L27.00,59.84L27.00,59.27L26.93,59.20L26.86,58.15L26.79,58.08L26.79,57.66L26.72,57.59L26.72,57.09L26.65,57.02L26.65,56.60L26.58,56.53L26.58,56.04L26.51,55.97L26.44,54.98L26.37,54.91L26.37,54.42L26.30,54.35L26.30,53.93L26.23,53.86L26.23,53.37L26.16,53.30L26.09,52.24L26.02,52.17L25.95,51.19L25.88,51.12L25.88,49.22L25.95,49.15L25.95,48.80L26.02,48.73L26.09,48.09L26.23,47.81L26.23,47.60L26.30,47.53L26.37,47.18L27.14,45.70L27.77,44.86L28.62,44.02L28.69,44.02L29.32,43.45L29.74,43.24L29.88,43.10L31.22,42.47L31.43,42.47L32.20,42.19L32.91,42.12ZM34.10,33.61L73.83,33.61L73.90,33.68L74.11,33.68L74.46,33.82L74.95,34.17L74.95,34.24L75.23,34.52L75.59,35.23L75.66,36.07L75.59,36.14L75.52,36.63L75.23,37.20L74.67,37.76L73.97,38.04L66.09,38.04L66.02,38.11L65.95,38.04L65.88,38.11L65.81,38.04L62.51,38.04L62.44,38.11L62.37,38.04L62.30,38.11L62.16,38.04L42.47,38.04L42.40,38.11L42.33,38.04L42.26,38.11L42.19,38.04L33.96,38.04L33.40,37.83L32.70,37.20L32.34,36.42L32.27,35.86L32.34,35.79L32.34,35.23L32.41,35.16L32.41,35.02L32.62,34.59L32.91,34.31L32.91,34.24L33.47,33.82L33.75,33.68L34.03,33.68ZM38.04,25.10L38.18,25.10L38.25,25.17L52.80,25.17L52.88,25.10L53.02,25.17L67.22,25.17L67.29,25.10L67.36,25.17L69.75,25.17L69.82,25.10L69.89,25.17L70.38,25.17L70.45,25.24L70.66,25.24L71.16,25.52L71.58,25.95L72.00,26.72L72.00,27.00L72.07,27.07L72.07,27.63L72.00,27.70L71.93,28.20L71.58,28.83L71.02,29.32L70.38,29.60L37.62,29.60L36.91,29.32L36.28,28.76L35.93,27.98L35.86,27.14L35.93,27.07L35.93,26.72L36.07,26.51L36.07,26.37L36.35,25.95L36.70,25.59L37.34,25.24L37.48,25.24L37.55,25.17L37.97,25.17Z"/><path fill="#372821" fill-rule="evenodd" d="M55.05,51.54L55.20,51.61L55.62,51.61L55.69,51.68L55.90,51.68L56.11,51.82L56.25,51.82L63.84,55.83L64.20,56.18L64.55,56.81L64.62,57.45L64.69,57.52L64.55,58.43L64.20,59.06L63.70,59.55L63.00,59.91L62.51,59.91L62.37,59.98L62.30,59.91L61.88,59.91L61.80,59.84L61.66,59.84L57.59,57.73L57.45,57.80L57.45,69.12L57.38,69.19L57.30,70.03L57.23,70.10L57.16,70.59L57.09,70.66L57.02,71.09L56.88,71.30L56.88,71.44L56.53,72.14L55.55,73.48L55.48,73.48L55.27,73.76L55.20,73.76L54.42,74.46L53.16,75.16L53.02,75.16L52.80,75.30L52.66,75.30L52.38,75.45L51.89,75.52L51.82,75.59L50.77,75.66L50.70,75.73L49.99,75.73L49.92,75.66L49.29,75.66L49.22,75.59L48.59,75.52L48.52,75.45L47.74,75.23L47.39,75.02L47.25,75.02L45.91,74.18L44.79,73.05L44.23,72.21L43.59,70.88L43.59,70.66L43.45,70.38L43.38,69.82L43.31,69.75L43.31,69.40L43.24,69.33L43.24,67.85L43.31,67.78L43.31,67.36L43.38,67.29L43.38,67.01L43.45,66.94L43.52,66.45L44.09,65.04L44.86,63.91L45.98,62.79L46.83,62.23L47.39,61.95L47.53,61.95L47.88,61.73L48.02,61.73L48.52,61.52L48.73,61.52L48.80,61.45L49.08,61.45L49.15,61.38L49.57,61.38L49.64,61.31L52.95,61.31L53.02,61.24L53.02,60.33L52.95,60.26L53.02,60.19L52.95,60.12L52.95,59.98L53.02,59.91L53.02,53.30L53.30,52.59L53.79,52.03L54.42,51.68L54.56,51.68L54.63,51.61L54.98,51.61Z"/>
</svg>
